<svg width="18" height="19" viewBox="0 0 18 19" fill="none" xmlns="http://www.w3.org/2000/svg">
<g clip-path="url(#clip0_1_100)">
<path d="M9 2C4.86 2 1.5 5.36 1.5 9.5C1.5 13.64 4.86 17 9 17C13.14 17 16.5 13.64 16.5 9.5C16.5 5.36 13.14 2 9 2ZM9 4.25C10.245 4.25 11.25 5.255 11.25 6.5C11.25 7.745 10.245 8.75 9 8.75C7.755 8.75 6.75 7.745 6.75 6.5C6.75 5.255 7.755 4.25 9 4.25ZM9 14.9C7.125 14.9 5.4675 13.94 4.5 12.485C4.5225 10.9925 7.5 10.175 9 10.175C10.4925 10.175 13.4775 10.9925 13.5 12.485C12.5325 13.94 10.875 14.9 9 14.9Z" fill="#4E7FC6"/>
</g>
<defs>
<clipPath id="clip0_1_100">
<rect width="18" height="18" fill="white" transform="translate(0 0.5)"/>
</clipPath>
</defs>
</svg>
