<svg width="173" height="39" viewBox="0 0 173 39" fill="none" xmlns="http://www.w3.org/2000/svg">
<path d="M19 1H154C164.217 1 172.5 9.28273 172.5 19.5C172.5 29.7173 164.217 38 154 38H19C8.78273 38 0.5 29.7173 0.5 19.5C0.5 9.28273 8.78273 1 19 1Z" fill="white"/>
<path d="M19 1H154C164.217 1 172.5 9.28273 172.5 19.5C172.5 29.7173 164.217 38 154 38H19C8.78273 38 0.5 29.7173 0.5 19.5C0.5 9.28273 8.78273 1 19 1Z" stroke="#747775"/>
<path fill-rule="evenodd" clip-rule="evenodd" d="M29.64 19.7046C29.64 19.0664 29.5827 18.4527 29.4764 17.8636H21V21.345H25.8436C25.635 22.47 25.0009 23.4232 24.0477 24.0614V26.3196H26.9564C28.6582 24.7527 29.64 22.4455 29.64 19.7046Z" fill="#4285F4"/>
<path fill-rule="evenodd" clip-rule="evenodd" d="M21 28.5C23.43 28.5 25.4673 27.6941 26.9564 26.3196L24.0477 24.0614C23.2418 24.6014 22.2109 24.9205 21 24.9205C18.6559 24.9205 16.6718 23.3373 15.9641 21.21H12.9573V23.5418C14.4382 26.4832 17.4818 28.5 21 28.5Z" fill="#34A853"/>
<path fill-rule="evenodd" clip-rule="evenodd" d="M15.9641 21.21C15.7841 20.67 15.6818 20.0932 15.6818 19.5C15.6818 18.9068 15.7841 18.33 15.9641 17.79V15.4582H12.9573C12.3477 16.6732 12 18.0477 12 19.5C12 20.9523 12.3477 22.3268 12.9573 23.5418L15.9641 21.21Z" fill="#FBBC05"/>
<path fill-rule="evenodd" clip-rule="evenodd" d="M21 14.0795C22.3214 14.0795 23.5077 14.5336 24.4405 15.4255L27.0218 12.8441C25.4632 11.3918 23.4259 10.5 21 10.5C17.4818 10.5 14.4382 12.5168 12.9573 15.4582L15.9641 17.79C16.6718 15.6627 18.6559 14.0795 21 14.0795Z" fill="#EA4335"/>
<path d="M47.2461 23.1396V24.5H42.249V23.1396H47.2461ZM42.7275 14.5469V24.5H41.0117V14.5469H42.7275ZM48.0938 20.8838V20.7266C48.0938 20.1934 48.1712 19.6989 48.3262 19.2432C48.4811 18.7829 48.7044 18.3841 48.9961 18.0469C49.2923 17.7051 49.6523 17.4408 50.0762 17.2539C50.5046 17.0625 50.9876 16.9668 51.5254 16.9668C52.0677 16.9668 52.5508 17.0625 52.9746 17.2539C53.403 17.4408 53.7653 17.7051 54.0615 18.0469C54.3577 18.3841 54.5833 18.7829 54.7383 19.2432C54.8932 19.6989 54.9707 20.1934 54.9707 20.7266V20.8838C54.9707 21.417 54.8932 21.9115 54.7383 22.3672C54.5833 22.8229 54.3577 23.2217 54.0615 23.5635C53.7653 23.9007 53.4053 24.165 52.9814 24.3564C52.5576 24.5433 52.0768 24.6367 51.5391 24.6367C50.9967 24.6367 50.5114 24.5433 50.083 24.3564C49.6592 24.165 49.2992 23.9007 49.0029 23.5635C48.7067 23.2217 48.4811 22.8229 48.3262 22.3672C48.1712 21.9115 48.0938 21.417 48.0938 20.8838ZM49.7412 20.7266V20.8838C49.7412 21.2165 49.7754 21.5309 49.8438 21.8271C49.9121 22.1234 50.0192 22.3831 50.165 22.6064C50.3109 22.8298 50.4977 23.0052 50.7256 23.1328C50.9535 23.2604 51.2246 23.3242 51.5391 23.3242C51.8444 23.3242 52.1087 23.2604 52.332 23.1328C52.5599 23.0052 52.7467 22.8298 52.8926 22.6064C53.0384 22.3831 53.1455 22.1234 53.2139 21.8271C53.2868 21.5309 53.3232 21.2165 53.3232 20.8838V20.7266C53.3232 20.3984 53.2868 20.0885 53.2139 19.7969C53.1455 19.5007 53.0361 19.2386 52.8857 19.0107C52.7399 18.7829 52.5531 18.6051 52.3252 18.4775C52.1019 18.3454 51.8353 18.2793 51.5254 18.2793C51.2155 18.2793 50.9466 18.3454 50.7188 18.4775C50.4954 18.6051 50.3109 18.7829 50.165 19.0107C50.0192 19.2386 49.9121 19.5007 49.8438 19.7969C49.7754 20.0885 49.7412 20.3984 49.7412 20.7266ZM61.0889 17.1035H62.5859V24.2949C62.5859 24.9603 62.4447 25.5254 62.1621 25.9902C61.8796 26.4551 61.4854 26.8083 60.9795 27.0498C60.4736 27.2959 59.888 27.4189 59.2227 27.4189C58.9401 27.4189 58.6257 27.3779 58.2793 27.2959C57.9375 27.2139 57.6048 27.0817 57.2812 26.8994C56.9622 26.7217 56.6956 26.487 56.4814 26.1953L57.2539 25.2246C57.5182 25.5391 57.8099 25.7692 58.1289 25.915C58.4479 26.0609 58.7829 26.1338 59.1338 26.1338C59.512 26.1338 59.8333 26.0632 60.0977 25.9219C60.3665 25.7852 60.5739 25.5824 60.7197 25.3135C60.8656 25.0446 60.9385 24.7165 60.9385 24.3291V18.7783L61.0889 17.1035ZM56.0645 20.8838V20.7402C56.0645 20.1797 56.1328 19.6693 56.2695 19.209C56.4062 18.7441 56.6022 18.3454 56.8574 18.0127C57.1126 17.6755 57.4225 17.418 57.7871 17.2402C58.1517 17.0579 58.5641 16.9668 59.0244 16.9668C59.5029 16.9668 59.9108 17.0534 60.248 17.2266C60.5898 17.3997 60.8747 17.6481 61.1025 17.9717C61.3304 18.2907 61.5081 18.6735 61.6357 19.1201C61.7679 19.5622 61.8659 20.0544 61.9297 20.5967V21.0547C61.8704 21.5833 61.7702 22.0664 61.6289 22.5039C61.4876 22.9414 61.3008 23.3197 61.0684 23.6387C60.8359 23.9577 60.5488 24.2038 60.207 24.377C59.8698 24.5501 59.471 24.6367 59.0107 24.6367C58.5596 24.6367 58.1517 24.5433 57.7871 24.3564C57.4271 24.1696 57.1172 23.9076 56.8574 23.5703C56.6022 23.2331 56.4062 22.8366 56.2695 22.3809C56.1328 21.9206 56.0645 21.4215 56.0645 20.8838ZM57.7119 20.7402V20.8838C57.7119 21.221 57.7438 21.5355 57.8076 21.8271C57.876 22.1188 57.9785 22.3763 58.1152 22.5996C58.2565 22.8184 58.4342 22.9915 58.6484 23.1191C58.8672 23.2422 59.1247 23.3037 59.4209 23.3037C59.8083 23.3037 60.125 23.2217 60.3711 23.0576C60.6217 22.8936 60.8132 22.6725 60.9453 22.3945C61.082 22.112 61.1777 21.7975 61.2324 21.4512V20.2139C61.2051 19.945 61.1481 19.6943 61.0615 19.4619C60.9795 19.2295 60.8678 19.0267 60.7266 18.8535C60.5853 18.6758 60.4076 18.5391 60.1934 18.4434C59.9792 18.3431 59.7262 18.293 59.4346 18.293C59.1383 18.293 58.8809 18.3568 58.6621 18.4844C58.4434 18.612 58.2633 18.7874 58.1221 19.0107C57.9854 19.234 57.8828 19.4938 57.8145 19.79C57.7461 20.0863 57.7119 20.403 57.7119 20.7402ZM66.0586 17.1035V24.5H64.4043V17.1035H66.0586ZM64.2949 15.1621C64.2949 14.9115 64.377 14.7041 64.541 14.54C64.7096 14.3714 64.9421 14.2871 65.2383 14.2871C65.5299 14.2871 65.7601 14.3714 65.9287 14.54C66.0973 14.7041 66.1816 14.9115 66.1816 15.1621C66.1816 15.4082 66.0973 15.6133 65.9287 15.7773C65.7601 15.9414 65.5299 16.0234 65.2383 16.0234C64.9421 16.0234 64.7096 15.9414 64.541 15.7773C64.377 15.6133 64.2949 15.4082 64.2949 15.1621ZM69.4971 18.6826V24.5H67.8496V17.1035H69.4014L69.4971 18.6826ZM69.2031 20.5283L68.6699 20.5215C68.6745 19.9974 68.7474 19.5166 68.8887 19.0791C69.0345 18.6416 69.235 18.2656 69.4902 17.9512C69.75 17.6367 70.0599 17.3952 70.4199 17.2266C70.7799 17.0534 71.181 16.9668 71.623 16.9668C71.9785 16.9668 72.2998 17.0169 72.5869 17.1172C72.8786 17.2129 73.127 17.3701 73.332 17.5889C73.5417 17.8076 73.7012 18.0924 73.8105 18.4434C73.9199 18.7897 73.9746 19.2158 73.9746 19.7217V24.5H72.3203V19.7148C72.3203 19.3594 72.2679 19.0791 72.1631 18.874C72.0628 18.6644 71.9147 18.5163 71.7188 18.4297C71.5273 18.3385 71.2881 18.293 71.001 18.293C70.7184 18.293 70.4655 18.3522 70.2422 18.4707C70.0189 18.5892 69.8298 18.751 69.6748 18.9561C69.5244 19.1611 69.4082 19.3981 69.3262 19.667C69.2441 19.9359 69.2031 20.223 69.2031 20.5283ZM82.1641 23.3242C82.4329 23.3242 82.6745 23.2718 82.8887 23.167C83.1074 23.0576 83.2829 22.9072 83.415 22.7158C83.5518 22.5244 83.627 22.3034 83.6406 22.0527H85.1924C85.1833 22.5312 85.042 22.9665 84.7686 23.3584C84.4951 23.7503 84.1328 24.0625 83.6816 24.2949C83.2305 24.5228 82.7314 24.6367 82.1846 24.6367C81.6195 24.6367 81.1273 24.541 80.708 24.3496C80.2887 24.1536 79.9401 23.8848 79.6621 23.543C79.3841 23.2012 79.1745 22.807 79.0332 22.3604C78.8965 21.9137 78.8281 21.4352 78.8281 20.9248V20.6855C78.8281 20.1751 78.8965 19.6966 79.0332 19.25C79.1745 18.7988 79.3841 18.4023 79.6621 18.0605C79.9401 17.7188 80.2887 17.4521 80.708 17.2607C81.1273 17.0648 81.6172 16.9668 82.1777 16.9668C82.7702 16.9668 83.2897 17.0853 83.7363 17.3223C84.1829 17.5547 84.5339 17.8805 84.7891 18.2998C85.0488 18.7145 85.1833 19.1976 85.1924 19.749H83.6406C83.627 19.4756 83.5586 19.2295 83.4355 19.0107C83.3171 18.7874 83.1484 18.6097 82.9297 18.4775C82.7155 18.3454 82.458 18.2793 82.1572 18.2793C81.8245 18.2793 81.5488 18.3477 81.3301 18.4844C81.1113 18.6165 80.9404 18.7988 80.8174 19.0312C80.6943 19.2591 80.6055 19.5166 80.5508 19.8037C80.5007 20.0863 80.4756 20.3802 80.4756 20.6855V20.9248C80.4756 21.2301 80.5007 21.5264 80.5508 21.8135C80.6009 22.1006 80.6875 22.3581 80.8105 22.5859C80.9382 22.8092 81.1113 22.9893 81.3301 23.126C81.5488 23.2581 81.8268 23.3242 82.1641 23.3242ZM86.1426 20.8838V20.7266C86.1426 20.1934 86.2201 19.6989 86.375 19.2432C86.5299 18.7829 86.7533 18.3841 87.0449 18.0469C87.3411 17.7051 87.7012 17.4408 88.125 17.2539C88.5534 17.0625 89.0365 16.9668 89.5742 16.9668C90.1165 16.9668 90.5996 17.0625 91.0234 17.2539C91.4518 17.4408 91.8141 17.7051 92.1104 18.0469C92.4066 18.3841 92.6322 18.7829 92.7871 19.2432C92.9421 19.6989 93.0195 20.1934 93.0195 20.7266V20.8838C93.0195 21.417 92.9421 21.9115 92.7871 22.3672C92.6322 22.8229 92.4066 23.2217 92.1104 23.5635C91.8141 23.9007 91.4541 24.165 91.0303 24.3564C90.6064 24.5433 90.1257 24.6367 89.5879 24.6367C89.0456 24.6367 88.5602 24.5433 88.1318 24.3564C87.708 24.165 87.348 23.9007 87.0518 23.5635C86.7555 23.2217 86.5299 22.8229 86.375 22.3672C86.2201 21.9115 86.1426 21.417 86.1426 20.8838ZM87.79 20.7266V20.8838C87.79 21.2165 87.8242 21.5309 87.8926 21.8271C87.9609 22.1234 88.068 22.3831 88.2139 22.6064C88.3597 22.8298 88.5465 23.0052 88.7744 23.1328C89.0023 23.2604 89.2734 23.3242 89.5879 23.3242C89.8932 23.3242 90.1576 23.2604 90.3809 23.1328C90.6087 23.0052 90.7956 22.8298 90.9414 22.6064C91.0872 22.3831 91.1943 22.1234 91.2627 21.8271C91.3356 21.5309 91.3721 21.2165 91.3721 20.8838V20.7266C91.3721 20.3984 91.3356 20.0885 91.2627 19.7969C91.1943 19.5007 91.085 19.2386 90.9346 19.0107C90.7887 18.7829 90.6019 18.6051 90.374 18.4775C90.1507 18.3454 89.8841 18.2793 89.5742 18.2793C89.2643 18.2793 88.9954 18.3454 88.7676 18.4775C88.5443 18.6051 88.3597 18.7829 88.2139 19.0107C88.068 19.2386 87.9609 19.5007 87.8926 19.7969C87.8242 20.0885 87.79 20.3984 87.79 20.7266ZM96.0479 18.6074V24.5H94.4004V17.1035H95.9521L96.0479 18.6074ZM95.7812 20.5283L95.2207 20.5215C95.2207 20.0111 95.2845 19.5394 95.4121 19.1064C95.5397 18.6735 95.7266 18.2975 95.9727 17.9785C96.2188 17.6549 96.5241 17.4066 96.8887 17.2334C97.2578 17.0557 97.6839 16.9668 98.167 16.9668C98.5042 16.9668 98.8118 17.0169 99.0898 17.1172C99.3724 17.2129 99.6162 17.3656 99.8213 17.5752C100.031 17.7848 100.19 18.0537 100.3 18.3818C100.414 18.71 100.471 19.1064 100.471 19.5713V24.5H98.8232V19.7148C98.8232 19.3548 98.7686 19.0723 98.6592 18.8672C98.5544 18.6621 98.4017 18.5163 98.2012 18.4297C98.0052 18.3385 97.7705 18.293 97.4971 18.293C97.1872 18.293 96.9229 18.3522 96.7041 18.4707C96.4899 18.5892 96.3145 18.751 96.1777 18.9561C96.041 19.1611 95.9408 19.3981 95.877 19.667C95.8132 19.9359 95.7812 20.223 95.7812 20.5283ZM100.368 20.0908L99.5957 20.2617C99.5957 19.8151 99.6572 19.3936 99.7803 18.9971C99.9079 18.596 100.092 18.2451 100.334 17.9443C100.58 17.639 100.883 17.3997 101.243 17.2266C101.603 17.0534 102.016 16.9668 102.48 16.9668C102.859 16.9668 103.196 17.0192 103.492 17.124C103.793 17.2243 104.048 17.3838 104.258 17.6025C104.467 17.8213 104.627 18.1061 104.736 18.457C104.846 18.8034 104.9 19.2227 104.9 19.7148V24.5H103.246V19.708C103.246 19.3343 103.191 19.0449 103.082 18.8398C102.977 18.6348 102.827 18.4935 102.631 18.416C102.435 18.334 102.2 18.293 101.927 18.293C101.672 18.293 101.446 18.3408 101.25 18.4365C101.059 18.5277 100.897 18.6576 100.765 18.8262C100.632 18.9902 100.532 19.1794 100.464 19.3936C100.4 19.6077 100.368 19.8402 100.368 20.0908ZM117.889 19.4141V23.2148C117.747 23.4017 117.526 23.6068 117.226 23.8301C116.929 24.0488 116.535 24.238 116.043 24.3975C115.551 24.557 114.938 24.6367 114.204 24.6367C113.58 24.6367 113.008 24.5319 112.488 24.3223C111.969 24.1081 111.52 23.7959 111.142 23.3857C110.768 22.9756 110.479 22.4766 110.273 21.8887C110.068 21.2962 109.966 20.6217 109.966 19.8652V19.1748C109.966 18.4229 110.059 17.7529 110.246 17.165C110.438 16.5726 110.711 16.0713 111.066 15.6611C111.422 15.251 111.85 14.9411 112.352 14.7314C112.857 14.5173 113.429 14.4102 114.067 14.4102C114.883 14.4102 115.558 14.5469 116.091 14.8203C116.629 15.0892 117.043 15.4629 117.335 15.9414C117.627 16.4199 117.811 16.9668 117.889 17.582H116.207C116.152 17.2357 116.045 16.9258 115.886 16.6523C115.731 16.3789 115.507 16.1647 115.216 16.0098C114.929 15.8503 114.555 15.7705 114.095 15.7705C113.698 15.7705 113.35 15.8457 113.049 15.9961C112.748 16.1465 112.497 16.3675 112.297 16.6592C112.101 16.9508 111.953 17.3063 111.853 17.7256C111.752 18.1449 111.702 18.6234 111.702 19.1611V19.8652C111.702 20.4121 111.759 20.8975 111.873 21.3213C111.992 21.7451 112.16 22.1029 112.379 22.3945C112.602 22.6862 112.873 22.9072 113.192 23.0576C113.511 23.2035 113.871 23.2764 114.272 23.2764C114.664 23.2764 114.986 23.2445 115.236 23.1807C115.487 23.1123 115.685 23.0326 115.831 22.9414C115.981 22.8457 116.098 22.7546 116.18 22.668V20.6924H114.108V19.4141H117.889ZM119.311 20.8838V20.7266C119.311 20.1934 119.388 19.6989 119.543 19.2432C119.698 18.7829 119.921 18.3841 120.213 18.0469C120.509 17.7051 120.869 17.4408 121.293 17.2539C121.721 17.0625 122.204 16.9668 122.742 16.9668C123.285 16.9668 123.768 17.0625 124.191 17.2539C124.62 17.4408 124.982 17.7051 125.278 18.0469C125.575 18.3841 125.8 18.7829 125.955 19.2432C126.11 19.6989 126.188 20.1934 126.188 20.7266V20.8838C126.188 21.417 126.11 21.9115 125.955 22.3672C125.8 22.8229 125.575 23.2217 125.278 23.5635C124.982 23.9007 124.622 24.165 124.198 24.3564C123.774 24.5433 123.294 24.6367 122.756 24.6367C122.214 24.6367 121.728 24.5433 121.3 24.3564C120.876 24.165 120.516 23.9007 120.22 23.5635C119.924 23.2217 119.698 22.8229 119.543 22.3672C119.388 21.9115 119.311 21.417 119.311 20.8838ZM120.958 20.7266V20.8838C120.958 21.2165 120.992 21.5309 121.061 21.8271C121.129 22.1234 121.236 22.3831 121.382 22.6064C121.528 22.8298 121.715 23.0052 121.942 23.1328C122.17 23.2604 122.441 23.3242 122.756 23.3242C123.061 23.3242 123.326 23.2604 123.549 23.1328C123.777 23.0052 123.964 22.8298 124.109 22.6064C124.255 22.3831 124.362 22.1234 124.431 21.8271C124.504 21.5309 124.54 21.2165 124.54 20.8838V20.7266C124.54 20.3984 124.504 20.0885 124.431 19.7969C124.362 19.5007 124.253 19.2386 124.103 19.0107C123.957 18.7829 123.77 18.6051 123.542 18.4775C123.319 18.3454 123.052 18.2793 122.742 18.2793C122.432 18.2793 122.163 18.3454 121.936 18.4775C121.712 18.6051 121.528 18.7829 121.382 19.0107C121.236 19.2386 121.129 19.5007 121.061 19.7969C120.992 20.0885 120.958 20.3984 120.958 20.7266ZM127.254 20.8838V20.7266C127.254 20.1934 127.331 19.6989 127.486 19.2432C127.641 18.7829 127.865 18.3841 128.156 18.0469C128.452 17.7051 128.812 17.4408 129.236 17.2539C129.665 17.0625 130.148 16.9668 130.686 16.9668C131.228 16.9668 131.711 17.0625 132.135 17.2539C132.563 17.4408 132.925 17.7051 133.222 18.0469C133.518 18.3841 133.743 18.7829 133.898 19.2432C134.053 19.6989 134.131 20.1934 134.131 20.7266V20.8838C134.131 21.417 134.053 21.9115 133.898 22.3672C133.743 22.8229 133.518 23.2217 133.222 23.5635C132.925 23.9007 132.565 24.165 132.142 24.3564C131.718 24.5433 131.237 24.6367 130.699 24.6367C130.157 24.6367 129.672 24.5433 129.243 24.3564C128.819 24.165 128.459 23.9007 128.163 23.5635C127.867 23.2217 127.641 22.8229 127.486 22.3672C127.331 21.9115 127.254 21.417 127.254 20.8838ZM128.901 20.7266V20.8838C128.901 21.2165 128.936 21.5309 129.004 21.8271C129.072 22.1234 129.179 22.3831 129.325 22.6064C129.471 22.8298 129.658 23.0052 129.886 23.1328C130.114 23.2604 130.385 23.3242 130.699 23.3242C131.005 23.3242 131.269 23.2604 131.492 23.1328C131.72 23.0052 131.907 22.8298 132.053 22.6064C132.199 22.3831 132.306 22.1234 132.374 21.8271C132.447 21.5309 132.483 21.2165 132.483 20.8838V20.7266C132.483 20.3984 132.447 20.0885 132.374 19.7969C132.306 19.5007 132.196 19.2386 132.046 19.0107C131.9 18.7829 131.713 18.6051 131.485 18.4775C131.262 18.3454 130.995 18.2793 130.686 18.2793C130.376 18.2793 130.107 18.3454 129.879 18.4775C129.656 18.6051 129.471 18.7829 129.325 19.0107C129.179 19.2386 129.072 19.5007 129.004 19.7969C128.936 20.0885 128.901 20.3984 128.901 20.7266ZM140.249 17.1035H141.746V24.2949C141.746 24.9603 141.605 25.5254 141.322 25.9902C141.04 26.4551 140.646 26.8083 140.14 27.0498C139.634 27.2959 139.048 27.4189 138.383 27.4189C138.1 27.4189 137.786 27.3779 137.439 27.2959C137.098 27.2139 136.765 27.0817 136.441 26.8994C136.122 26.7217 135.856 26.487 135.642 26.1953L136.414 25.2246C136.678 25.5391 136.97 25.7692 137.289 25.915C137.608 26.0609 137.943 26.1338 138.294 26.1338C138.672 26.1338 138.993 26.0632 139.258 25.9219C139.527 25.7852 139.734 25.5824 139.88 25.3135C140.026 25.0446 140.099 24.7165 140.099 24.3291V18.7783L140.249 17.1035ZM135.225 20.8838V20.7402C135.225 20.1797 135.293 19.6693 135.43 19.209C135.566 18.7441 135.762 18.3454 136.018 18.0127C136.273 17.6755 136.583 17.418 136.947 17.2402C137.312 17.0579 137.724 16.9668 138.185 16.9668C138.663 16.9668 139.071 17.0534 139.408 17.2266C139.75 17.3997 140.035 17.6481 140.263 17.9717C140.491 18.2907 140.668 18.6735 140.796 19.1201C140.928 19.5622 141.026 20.0544 141.09 20.5967V21.0547C141.031 21.5833 140.93 22.0664 140.789 22.5039C140.648 22.9414 140.461 23.3197 140.229 23.6387C139.996 23.9577 139.709 24.2038 139.367 24.377C139.03 24.5501 138.631 24.6367 138.171 24.6367C137.72 24.6367 137.312 24.5433 136.947 24.3564C136.587 24.1696 136.277 23.9076 136.018 23.5703C135.762 23.2331 135.566 22.8366 135.43 22.3809C135.293 21.9206 135.225 21.4215 135.225 20.8838ZM136.872 20.7402V20.8838C136.872 21.221 136.904 21.5355 136.968 21.8271C137.036 22.1188 137.139 22.3763 137.275 22.5996C137.417 22.8184 137.594 22.9915 137.809 23.1191C138.027 23.2422 138.285 23.3037 138.581 23.3037C138.968 23.3037 139.285 23.2217 139.531 23.0576C139.782 22.8936 139.973 22.6725 140.105 22.3945C140.242 22.112 140.338 21.7975 140.393 21.4512V20.2139C140.365 19.945 140.308 19.6943 140.222 19.4619C140.14 19.2295 140.028 19.0267 139.887 18.8535C139.745 18.6758 139.568 18.5391 139.354 18.4434C139.139 18.3431 138.886 18.293 138.595 18.293C138.299 18.293 138.041 18.3568 137.822 18.4844C137.604 18.612 137.424 18.7874 137.282 19.0107C137.146 19.234 137.043 19.4938 136.975 19.79C136.906 20.0863 136.872 20.403 136.872 20.7402ZM145.219 14V24.5H143.564V14H145.219ZM150.284 24.6367C149.737 24.6367 149.243 24.5479 148.801 24.3701C148.363 24.1878 147.99 23.9349 147.68 23.6113C147.374 23.2878 147.14 22.9072 146.976 22.4697C146.812 22.0322 146.729 21.5605 146.729 21.0547V20.7812C146.729 20.2025 146.814 19.6784 146.982 19.209C147.151 18.7396 147.386 18.3385 147.687 18.0059C147.987 17.6686 148.343 17.4111 148.753 17.2334C149.163 17.0557 149.607 16.9668 150.086 16.9668C150.615 16.9668 151.077 17.0557 151.474 17.2334C151.87 17.4111 152.198 17.6618 152.458 17.9854C152.722 18.3044 152.918 18.6849 153.046 19.127C153.178 19.569 153.244 20.0566 153.244 20.5898V21.2939H147.529V20.1113H151.617V19.9814C151.608 19.6852 151.549 19.4072 151.439 19.1475C151.335 18.8877 151.173 18.6781 150.954 18.5186C150.735 18.359 150.444 18.2793 150.079 18.2793C149.806 18.2793 149.562 18.3385 149.348 18.457C149.138 18.571 148.963 18.7373 148.821 18.9561C148.68 19.1748 148.571 19.4391 148.493 19.749C148.42 20.0544 148.384 20.3984 148.384 20.7812V21.0547C148.384 21.3783 148.427 21.679 148.514 21.957C148.605 22.2305 148.737 22.4697 148.91 22.6748C149.083 22.8799 149.293 23.0417 149.539 23.1602C149.785 23.2741 150.065 23.3311 150.38 23.3311C150.776 23.3311 151.13 23.2513 151.439 23.0918C151.749 22.9323 152.018 22.7067 152.246 22.415L153.114 23.2559C152.955 23.4883 152.747 23.7116 152.492 23.9258C152.237 24.1354 151.925 24.3063 151.556 24.4385C151.191 24.5706 150.767 24.6367 150.284 24.6367Z" fill="#1F1F1F"/>
</svg>
