<svg width="16" height="17" viewBox="0 0 16 17" fill="none" xmlns="http://www.w3.org/2000/svg">
<circle cx="8" cy="8.5" r="8" fill="#4E7FC6"/>
<path d="M11 6.83333H10.5V5.88095C10.5 4.56667 9.38 3.5 8 3.5C6.62 3.5 5.5 4.56667 5.5 5.88095V6.83333H5C4.45 6.83333 4 7.2619 4 7.78571V12.5476C4 13.0714 4.45 13.5 5 13.5H11C11.55 13.5 12 13.0714 12 12.5476V7.78571C12 7.2619 11.55 6.83333 11 6.83333ZM8 11.119C7.45 11.119 7 10.6905 7 10.1667C7 9.64286 7.45 9.21429 8 9.21429C8.55 9.21429 9 9.64286 9 10.1667C9 10.6905 8.55 11.119 8 11.119ZM9.55 6.83333H6.45V5.88095C6.45 5.06667 7.145 4.40476 8 4.40476C8.855 4.40476 9.55 5.06667 9.55 5.88095V6.83333Z" fill="white"/>
</svg>
