<svg width="204" height="198" viewBox="0 0 204 198" fill="none" xmlns="http://www.w3.org/2000/svg">
<path d="M194.523 71.79L125.663 2.63863L125.627 2.67271C122.244 -0.757248 117.567 0.29982 114.783 3.11154C112.107 5.81355 111.18 10.1388 114.834 13.6584L183.615 82.7294C186.919 86.0435 188.571 90.4202 188.571 94.8006C188.571 99.1814 186.919 103.559 183.615 106.87L114.038 176.641C110.734 179.953 106.37 181.611 102 181.611V181.64C97.6502 181.64 93.2853 179.974 89.9621 176.641L20.3847 106.872C17.0812 103.559 15.4279 99.1826 15.4279 94.8006C15.4279 90.4187 17.0812 86.0423 20.3847 82.7294L80.6358 22.3117C96.9128 38.6322 113.189 54.9534 129.466 71.2758C143.04 84.8854 143.683 106.984 132.038 120.546C122.595 131.545 107.274 135.015 94.5981 129.257C81.697 123.398 64.8452 102.711 54.4285 91.8027C51.0711 88.2866 47.6228 85.1036 42.3882 88.8156C38.849 91.327 37.0664 96.3802 41.2296 100.391C53.7959 113.104 71.7523 135.029 86.4161 142.506C104.688 151.824 127.894 147.639 142.313 132.286C160.225 113.213 160.73 80.7439 140.376 60.3358C120.477 40.3838 100.558 20.4368 80.6769 0.49939C80.1215 0.984695 79.5798 1.49231 79.0526 2.02101L9.47511 71.79C3.15852 78.124 0 86.4665 0 94.8006C0 103.135 3.15852 111.477 9.47511 117.81L79.0526 187.58C85.3499 193.895 93.6703 197.053 102 197.053V197.082C110.311 197.082 118.631 193.915 124.947 187.58L194.523 117.81C200.841 111.477 204 103.136 204 94.8006C204 86.4653 200.841 78.1256 194.523 71.79Z" fill="#527BC6"/>
</svg>
